<?xml version="1.0" encoding="utf-8"?>
<!-- Generator: Adobe Illustrator 23.0.3, SVG Export Plug-In . SVG Version: 6.00 Build 0)  -->
<svg version="1.1" id="Layer_1" xmlns="http://www.w3.org/2000/svg" xmlns:xlink="http://www.w3.org/1999/xlink" x="0px" y="0px"
	 viewBox="0 0 432 153.2" style="enable-background:new 0 0 432 153.2;" xml:space="preserve">
<g>
	<g>
		<path d="M90.9,121.6l7.2,7c0.5,0.5,0.9,0.9,1.2,1.4v-8h1.7v12l-7.3-7.2c-0.4-0.4-0.8-0.8-1.1-1.3v8h-1.7V121.6z"/>
		<path d="M115.7,132.1c-1.2,1.1-2.7,1.8-4.3,1.8c-1.6,0-3.1-0.6-4.3-1.8c-1.2-1.1-1.8-2.6-1.8-4.3c0-1.6,0.6-3.1,1.8-4.3
			c1.2-1.1,2.7-1.8,4.3-1.8c1.6,0,3.1,0.6,4.3,1.8c1.2,1.2,1.8,2.7,1.8,4.3C117.5,129.4,116.9,130.9,115.7,132.1z M114.4,124.7
			c-0.8-0.8-1.8-1.3-2.9-1.3c-1.1,0-2.1,0.4-2.9,1.3c-0.8,0.8-1.2,1.9-1.2,3.1c0,1.2,0.4,2.2,1.2,3c0.8,0.8,1.8,1.3,2.9,1.3
			c1.1,0,2.1-0.4,2.9-1.3c0.8-0.8,1.2-1.9,1.2-3C115.6,126.6,115.2,125.6,114.4,124.7z"/>
		<path d="M120.2,122h1.9l2.5,6.1c0.3,0.6,0.5,1.2,0.6,1.9c0.1-0.6,0.3-1.2,0.6-1.9l2.5-6.1h1.9l-5,12L120.2,122z"/>
		<path d="M139.7,130.6h-4.5l-1.3,3H132l5.5-12l5.5,12H141L139.7,130.6z M139.1,129l-1.2-2.6c-0.1-0.3-0.3-0.7-0.4-1.3
			c-0.1,0.6-0.3,1-0.4,1.3l-1.2,2.6H139.1z"/>
		<path d="M154.3,130.5c0.3,1,1,1.6,2.2,1.6c1.1,0,1.8-0.7,1.8-1.7c0-1.1-0.8-1.4-2-2c-2-1-3.1-1.8-3.1-3.5c0-1.9,1.3-3.2,3.4-3.2
			c1.7,0,2.8,0.7,3.3,1.9l-1.4,0.8c-0.4-0.7-1-1-1.7-1c-1,0-1.6,0.6-1.6,1.4c0,1.1,0.9,1.5,2.2,2c2,0.9,2.9,1.8,2.9,3.4
			c0,2.1-1.4,3.6-3.7,3.6c-1.9,0-3.2-0.9-3.6-2.6L154.3,130.5z"/>
		<path d="M170.1,123.5c-2.5,0-4.2,1.8-4.2,4.4c0,2.5,1.7,4.3,4,4.3c1.3,0,2.5-0.5,3.7-1.5v2.1c-1,0.7-2.2,1.1-3.5,1.1
			c-1.7,0-3.2-0.6-4.3-1.7c-1.1-1.1-1.7-2.7-1.7-4.3c0-1.7,0.6-3.2,1.7-4.3c1.1-1.1,2.6-1.7,4.3-1.7c1.4,0,2.5,0.4,3.6,1.2l-0.1,1.9
			C172.6,123.9,171.4,123.5,170.1,123.5z"/>
		<path d="M178.2,122h1.8v4.3h5.6V122h1.8v11.5h-1.8V128h-5.6v5.6h-1.8V122z"/>
		<path d="M202.2,132.1c-1.2,1.1-2.7,1.8-4.3,1.8c-1.6,0-3.1-0.6-4.3-1.8c-1.2-1.1-1.8-2.6-1.8-4.3c0-1.6,0.6-3.1,1.8-4.3
			c1.2-1.1,2.7-1.8,4.3-1.8c1.6,0,3.1,0.6,4.3,1.8c1.2,1.2,1.8,2.7,1.8,4.3C204,129.4,203.4,130.9,202.2,132.1z M200.9,124.7
			c-0.8-0.8-1.8-1.3-2.9-1.3c-1.1,0-2.1,0.4-2.9,1.3c-0.8,0.8-1.2,1.9-1.2,3.1c0,1.2,0.4,2.2,1.2,3c0.8,0.8,1.8,1.3,2.9,1.3
			s2.1-0.4,2.9-1.3c0.8-0.8,1.2-1.9,1.2-3C202.1,126.6,201.7,125.6,200.9,124.7z"/>
		<path d="M218.3,132.1c-1.1,1.1-2.6,1.8-4.3,1.8c-1.6,0-3.1-0.6-4.3-1.8c-1.2-1.1-1.8-2.6-1.8-4.3c0-1.6,0.6-3.1,1.8-4.3
			c1.2-1.1,2.7-1.8,4.3-1.8c1.6,0,3.1,0.6,4.3,1.8c1.2,1.2,1.8,2.7,1.8,4.3C220.1,129.4,219.4,130.9,218.3,132.1z M216.9,124.7
			c-0.8-0.8-1.8-1.3-2.9-1.3c-1.1,0-2.1,0.4-2.9,1.3c-0.8,0.8-1.2,1.9-1.2,3.1c0,1.2,0.4,2.2,1.2,3c0.8,0.8,1.8,1.3,2.9,1.3
			c1.1,0,2.1-0.4,2.9-1.3c0.8-0.8,1.2-1.9,1.2-3C218.1,126.6,217.7,125.6,216.9,124.7z"/>
		<path d="M224.5,122h1.8v9.8h4.1v1.7h-5.9V122z"/>
		<path d="M249.1,132.1c-1.2,1.1-2.7,1.8-4.3,1.8c-1.6,0-3.1-0.6-4.3-1.8c-1.2-1.1-1.7-2.6-1.7-4.3c0-1.6,0.6-3.1,1.7-4.3
			c1.2-1.1,2.7-1.8,4.3-1.8c1.6,0,3.1,0.6,4.3,1.8c1.2,1.2,1.8,2.7,1.8,4.3C250.8,129.4,250.2,130.9,249.1,132.1z M247.7,124.7
			c-0.8-0.8-1.8-1.3-2.9-1.3c-1.1,0-2.1,0.4-2.9,1.3c-0.8,0.8-1.2,1.9-1.2,3.1c0,1.2,0.4,2.2,1.2,3c0.8,0.8,1.8,1.3,2.9,1.3
			c1.1,0,2.1-0.4,2.9-1.3c0.8-0.8,1.2-1.9,1.2-3C248.9,126.6,248.5,125.6,247.7,124.7z"/>
		<path d="M254.3,122h6.3v1.6h-4.5v2.9h4.5v1.6h-4.5v5.4h-1.8V122z"/>
		<path d="M90.9,141.4h2.8c1.2,0,2.1,0,2.8,0.6c0.7,0.5,1.1,1.4,1.1,2.4c0,1.2-0.6,2.1-1.6,2.4c1.3,0.2,2.1,1.3,2.1,2.8
			c0,1-0.3,1.8-0.9,2.4c-0.8,0.8-1.9,0.9-3.5,0.9h-2.9V141.4z M93.4,146.2c1.7,0,2.4-0.4,2.4-1.6c0-1.4-0.8-1.7-2.4-1.7h-0.7v3.3
			H93.4z M93.3,151.3c1,0,1.8,0,2.2-0.4c0.4-0.3,0.7-0.8,0.7-1.5c0-0.7-0.3-1.3-0.9-1.6c-0.4-0.2-0.9-0.3-1.5-0.3
			c-0.2,0-0.4,0-0.6,0h-0.6v3.7H93.3z"/>
		<path d="M104.1,141.4v7c0,2.1,1,3.1,2.8,3.1c1.9,0,2.8-1,2.8-3.1v-7h1.8v7.2c0,3.1-1.5,4.7-4.6,4.7c-3.1,0-4.6-1.5-4.6-4.7v-7.2
			H104.1z"/>
		<path d="M117.3,149.9c0.3,1,1,1.6,2.2,1.6c1.1,0,1.8-0.7,1.8-1.7c0-1.1-0.8-1.4-2-2c-2-1-3.1-1.8-3.1-3.5c0-1.8,1.3-3.2,3.4-3.2
			c1.7,0,2.8,0.7,3.3,1.9l-1.4,0.8c-0.4-0.7-1-1-1.7-1c-1,0-1.6,0.6-1.6,1.4c0,1.1,0.9,1.4,2.2,2c2,0.9,2.9,1.8,2.9,3.4
			c0,2.1-1.4,3.6-3.7,3.6c-1.9,0-3.2-0.9-3.6-2.6L117.3,149.9z"/>
		<path d="M127.5,141.4h1.8v11.5h-1.8V141.4z"/>
		<path d="M134.4,140.9l7.2,7c0.5,0.5,0.9,0.9,1.2,1.4v-8h1.7v12l-7.3-7.2c-0.4-0.4-0.8-0.8-1.1-1.3v8h-1.7V140.9z"/>
		<path d="M149.4,141.4h6.3v1.6h-4.5v2.9h4.5v1.6h-4.5v3.7h4.5v1.7h-6.3V141.4z"/>
		<path d="M161,149.9c0.3,1,1,1.6,2.2,1.6c1.1,0,1.8-0.7,1.8-1.7c0-1.1-0.8-1.4-2-2c-2-1-3.1-1.8-3.1-3.5c0-1.8,1.3-3.2,3.4-3.2
			c1.7,0,2.8,0.7,3.3,1.9l-1.4,0.8c-0.4-0.7-1-1-1.7-1c-1,0-1.6,0.6-1.6,1.4c0,1.1,0.9,1.4,2.1,2c2,0.9,2.9,1.8,2.9,3.4
			c0,2.1-1.4,3.6-3.7,3.6c-1.9,0-3.2-0.9-3.6-2.6L161,149.9z"/>
		<path d="M172.1,149.9c0.3,1,1,1.6,2.2,1.6c1.1,0,1.8-0.7,1.8-1.7c0-1.1-0.8-1.4-2-2c-2-1-3.1-1.8-3.1-3.5c0-1.8,1.3-3.2,3.4-3.2
			c1.7,0,2.8,0.7,3.3,1.9l-1.4,0.8c-0.4-0.7-1-1-1.7-1c-1,0-1.6,0.6-1.6,1.4c0,1.1,0.9,1.4,2.1,2c2,0.9,2.9,1.8,2.9,3.4
			c0,2.1-1.4,3.6-3.7,3.6c-1.9,0-3.2-0.9-3.6-2.6L172.1,149.9z"/>
		<path d="M191.9,151.8c-1.1,0.9-2.2,1.4-3.5,1.4c-2.1,0-3.5-1.4-3.5-3.3c0-1.4,0.8-2.4,2.5-3.5l-0.5-0.5c-0.5-0.6-0.8-1.2-0.8-1.9
			c0-1.5,1.2-2.6,2.9-2.6c1.7,0,2.8,1,2.8,2.4c0,1.2-0.7,2-2.2,2.9l2.4,2.8c0.5-0.5,1-1.1,1.5-1.8l1.1,1.2c-0.4,0.7-0.9,1.3-1.5,1.8
			l1.9,2.2h-2.1L191.9,151.8z M188.4,147.7l-0.3,0.2c-0.9,0.6-1.5,1.1-1.5,2c0,1,0.8,1.8,1.8,1.8c0.8,0,1.5-0.4,2.4-1.1L188.4,147.7
			z M189.3,145.3c0.6-0.4,0.9-0.8,0.9-1.4c0-0.7-0.4-1.1-1.1-1.1c-0.7,0-1.2,0.5-1.2,1.1c0,0.3,0.1,0.6,0.4,0.9l0.6,0.7L189.3,145.3
			z"/>
		<path d="M201.9,141.4h6.3v1.6h-4.5v2.9h4.5v1.6h-4.5v3.7h4.5v1.7h-6.3V141.4z"/>
		<path d="M218.3,142.8c-2.5,0-4.2,1.8-4.2,4.4c0,2.5,1.7,4.3,4,4.3c1.3,0,2.5-0.5,3.7-1.4v2.1c-1,0.7-2.2,1.1-3.5,1.1
			c-1.7,0-3.2-0.6-4.3-1.7c-1.1-1.1-1.7-2.7-1.7-4.3c0-1.7,0.6-3.2,1.7-4.3c1.1-1.1,2.6-1.7,4.3-1.7c1.4,0,2.5,0.4,3.7,1.2l-0.1,1.9
			C220.7,143.3,219.5,142.8,218.3,142.8z"/>
		<path d="M236.2,151.4c-1.2,1.1-2.7,1.8-4.3,1.8c-1.6,0-3.1-0.6-4.3-1.8c-1.2-1.1-1.8-2.6-1.8-4.3c0-1.6,0.6-3.1,1.8-4.3
			c1.2-1.1,2.7-1.8,4.3-1.8c1.6,0,3.1,0.6,4.3,1.8c1.2,1.2,1.8,2.7,1.8,4.3C238,148.8,237.3,150.3,236.2,151.4z M234.8,144.1
			c-0.8-0.8-1.8-1.3-2.9-1.3c-1.1,0-2.1,0.4-2.9,1.3c-0.8,0.8-1.2,1.9-1.2,3.1c0,1.2,0.4,2.2,1.2,3c0.8,0.8,1.8,1.3,2.9,1.3
			c1.1,0,2.1-0.4,2.9-1.3c0.8-0.8,1.2-1.9,1.2-3C236,146,235.6,144.9,234.8,144.1z"/>
		<path d="M242.4,140.9l7.2,7c0.5,0.5,0.9,0.9,1.2,1.4v-8h1.7v12l-7.3-7.2c-0.4-0.4-0.8-0.8-1.1-1.3v8h-1.7V140.9z"/>
		<path d="M267.3,151.4c-1.2,1.1-2.7,1.8-4.3,1.8c-1.6,0-3.1-0.6-4.3-1.8c-1.2-1.1-1.8-2.6-1.8-4.3c0-1.6,0.6-3.1,1.8-4.3
			c1.2-1.1,2.7-1.8,4.3-1.8c1.6,0,3.1,0.6,4.3,1.8c1.2,1.2,1.8,2.7,1.8,4.3C269.1,148.8,268.4,150.3,267.3,151.4z M265.9,144.1
			c-0.8-0.8-1.8-1.3-2.9-1.3c-1.1,0-2.1,0.4-2.9,1.3c-0.8,0.8-1.2,1.9-1.2,3.1c0,1.2,0.4,2.2,1.2,3c0.8,0.8,1.8,1.3,2.9,1.3
			c1.1,0,2.1-0.4,2.9-1.3c0.8-0.8,1.2-1.9,1.2-3C267.1,146,266.7,144.9,265.9,144.1z"/>
		<path d="M282.5,145.6c-0.1,0.6-0.3,1.1-0.5,1.6l-3,6.1l-2.9-6.3c-0.2-0.5-0.4-1-0.6-1.5c0,0.6-0.1,1.1-0.2,1.6l-1.2,5.7h-1.7
			l2.7-12l3.3,7.2c0.1,0.2,0.3,0.7,0.6,1.6c0.2-0.6,0.5-1.2,0.7-1.6l3.3-7.2l2.7,12H284l-1.2-5.7C282.7,147,282.6,146.5,282.5,145.6
			z"/>
		<path d="M289.6,141.4h1.8v11.5h-1.8V141.4z"/>
		<path d="M302,142.8c-2.5,0-4.2,1.8-4.2,4.4c0,2.5,1.7,4.3,4,4.3c1.3,0,2.5-0.5,3.7-1.4v2.1c-1,0.7-2.2,1.1-3.5,1.1
			c-1.7,0-3.2-0.6-4.3-1.7c-1.1-1.1-1.7-2.7-1.7-4.3c0-1.7,0.6-3.2,1.7-4.3c1.1-1.1,2.6-1.7,4.3-1.7c1.4,0,2.5,0.4,3.7,1.2l-0.1,1.9
			C304.4,143.3,303.3,142.8,302,142.8z"/>
		<path d="M310.9,149.9c0.3,1,1,1.6,2.2,1.6c1.1,0,1.8-0.7,1.8-1.7c0-1.1-0.8-1.4-2-2c-2-1-3.1-1.8-3.1-3.5c0-1.8,1.3-3.2,3.4-3.2
			c1.7,0,2.8,0.7,3.3,1.9l-1.4,0.8c-0.4-0.7-1-1-1.7-1c-1,0-1.6,0.6-1.6,1.4c0,1.1,0.9,1.4,2.1,2c2,0.9,2.9,1.8,2.9,3.4
			c0,2.1-1.4,3.6-3.7,3.6c-1.9,0-3.2-0.9-3.6-2.6L310.9,149.9z"/>
	</g>
	<g>
		<polygon points="276.8,37.6 250.5,99.3 268.1,99.3 283.6,62.9 299.1,99.3 316.7,99.3 290.4,37.6 		"/>
	</g>
	<path d="M140.3,8.5c-18.3,0-33.2,14.9-33.2,33.2c0,18.3,14.9,33.2,33.2,33.2c18.3,0,33.2-14.9,33.2-33.2
		C173.5,23.4,158.6,8.5,140.3,8.5z M140.3,58.8c-9.4,0-17-7.6-17-17c0-9.4,7.6-17,17-17c9.4,0,17,7.6,17,17
		C157.3,51.1,149.7,58.8,140.3,58.8z"/>
	<rect x="90.9" y="83.1" width="98.8" height="16.2"/>
	<polygon points="58.5,37.6 58.5,73.8 28.7,37.6 12.5,37.6 12.5,99.3 28.7,99.3 28.7,63.1 58.5,99.3 74.7,99.3 74.7,37.6 	"/>
	<path d="M218.8,91.2"/>
	<g>
		<polygon points="229.6,99.3 256,37.6 238.4,37.6 222.8,74 207.3,37.6 189.7,37.6 216,99.3 		"/>
	</g>
	<path d="M273,80.5"/>
</g>
</svg>
